<?xml version="1.0" encoding="UTF-8" standalone="no"?>
<svg
   version="1.0"
   width="180"
   height="185"
   id="svg2"
   xmlns="http://www.w3.org/2000/svg"
   xmlns:svg="http://www.w3.org/2000/svg"
   xmlns:rdf="http://www.w3.org/1999/02/22-rdf-syntax-ns#"
   xmlns:cc="http://creativecommons.org/ns#"
   xmlns:dc="http://purl.org/dc/elements/1.1/">
  <metadata
     id="metadata10">
    <rdf:RDF>
      <cc:Work
         rdf:about="">
        <dc:format>image/svg+xml</dc:format>
        <dc:type
           rdf:resource="http://purl.org/dc/dcmitype/StillImage" />
      </cc:Work>
    </rdf:RDF>
  </metadata>
  <defs
     id="defs8" />
  <path
     d="M 164.07,82.2 C 170.8,130.13 140.4,174 96.2,180.3 51.9,186.5 10.6,152.7 3.93,104.79 -2.79,56.87 27.6,12.98 71.843612,6.7 116.1,0.5 157.4,34.3 164,82.21 Z"
     style="display:inline;fill-opacity:0.2"
     id="path1140" />
  <path
     d="M 176.07,80.2 C 182.8,128 152.4,172.03 108.16,178.26 63.9,184.5 22.6,150.7 15.9,102.79 9.22,54.9 39.6,10.9 83.8,4.7 128,-1.5 169,32.3 176,80.2 Z"
     style="display:inline;fill:#2a7fff"
     id="path1142" />
  <path
     d="M 160.057,82.470048 C 165.43,120.8 141.1,155.9 105.7,160.9 70.35,165.89 37.3,138.9 31.9,100.5 26.6,62.2 50.9,27 86.3,22 c 35.4,-4.9 68.4,22 73.757,60.5 v 0 z"
     style="display:inline;fill:#d7eef4"
     id="path1144" />
  <path
     d="m 138.25821,124.93657 -5.60464,0.93913 a 2.3946926,3.0467171 0 0 1 -1.61837,-0.33335 3.1798378,4.0456408 0 0 1 -1.05409,-1.38507 l -4.93705,-12.11975 -19.46058,3.26087 -2.59011,13.22989 a 3.0228088,3.8458561 0 0 1 -0.70247,1.62904 2.3161782,2.9468248 0 0 1 -1.48509,0.95412 l -5.371111,0.9 11.829561,-59.765178 7.3561,-1.23261 z m -15.94849,-19.04032 -8.29735,-19.717839 a 45.616932,58.037464 0 0 1 -2.15355,-5.885957 q -0.16062,1.890884 -0.3858,3.540697 l -0.45245,2.896957 -4.00173,21.778712 z M 96.979489,102.18101 A 52.722496,67.077723 0 0 1 84.930663,97.096727 44.988816,57.238325 0 0 0 93.114829,68.672649 l 7.511781,-1.258696 -0.681765,-6.585966 -18.254019,3.058697 a 15.702903,19.978473 0 0 0 -1.065478,-2.642608 c -1.267301,-3.062185 -2.723131,-6.798063 -2.723131,-6.798063 l -5.465109,3.434624 c 0,0 2.013066,4.146282 3.104174,7.036483 l -22.301817,3.73696 0.681761,6.585966 8.368049,-1.402175 A 44.085899,56.089563 0 0 0 76.134481,98.570642 67.483225,85.857488 0 0 1 57.750374,112.23041 q 2.59992,3.69531 4.093532,6.26617 a 91.390891,116.27471 0 0 0 19.030211,-15.83351 61.39835,78.11583 0 0 0 14.763237,6.44305 z M 68.049601,72.872654 87.15989,69.670476 A 31.837635,40.506354 0 0 1 79.905288,93.304063 35.763361,45.500972 0 0 1 68.049601,72.872654 Z"
     id="path1146"
     style="display:inline;fill:#2a7fff;fill-opacity:1;stroke-width:4.42804" />
</svg>
